<mxfile host="app.diagrams.net" modified="2025-09-22T00:00:00.000Z" agent="5.0" etag="multi-cloud-enhanced" version="22.1.16" type="device">
    <diagram name="Enhanced Multi-Cloud Architecture" id="multi-cloud-arch-enhanced">
        <mxGraphModel dx="1422" dy="794" grid="1" gridSize="10" guides="1" tooltips="1" connect="1" arrows="1" fold="1" page="1" pageScale="1" pageWidth="1169" pageHeight="827" math="0" shadow="0">
            <root>
                <mxCell id="0" />
                <mxCell id="1" parent="0" />

                <!-- Internet -->
                <mxCell id="internet" value="Internet Users" style="shape=cloud;fillColor=#e1d5e7;strokeColor=#9673a6;" vertex="1" parent="1">
                    <mxGeometry x="520" y="20" width="120" height="60" as="geometry" />
                </mxCell>

                <!-- Route 53 -->
                <mxCell id="route53" value="Route 53 DNS + Health Checks" style="shape=mxgraph.aws.general.route_53;verticalLabelPosition=bottom;verticalAlign=top;" vertex="1" parent="1">
                    <mxGeometry x="520" y="100" width="80" height="80" as="geometry" />
                </mxCell>

                <!-- AWS Region -->
                <mxCell id="aws-region" value="AWS Primary (us-east-1)" style="swimlane;fillColor=#dae8fc;strokeColor=#6c8ebf;fontStyle=1;" vertex="1" parent="1">
                    <mxGeometry x="40" y="200" width="520" height="420" as="geometry" />
                </mxCell>

                <!-- AWS WAF -->
                <mxCell id="aws-waf" value="AWS WAF + Shield" style="shape=mxgraph.aws.security_identity_and_compliance.waf;verticalLabelPosition=bottom;verticalAlign=top;" vertex="1" parent="aws-region">
                    <mxGeometry x="40" y="20" width="70" height="70" as="geometry" />
                </mxCell>

                <!-- AWS ALB -->
                <mxCell id="alb" value="Application Load Balancer" style="shape=mxgraph.aws.network.application_load_balancer;verticalLabelPosition=bottom;verticalAlign=top;" vertex="1" parent="aws-region">
                    <mxGeometry x="150" y="20" width="70" height="70" as="geometry" />
                </mxCell>

                <!-- EKS -->
                <mxCell id="eks" value="Amazon EKS Cluster" style="shape=mxgraph.aws.compute.eks;verticalLabelPosition=bottom;verticalAlign=top;" vertex="1" parent="aws-region">
                    <mxGeometry x="270" y="20" width="80" height="80" as="geometry" />
                </mxCell>

                <!-- Microservices inside EKS -->
                <mxCell id="svc1" value="Trading Engine" style="rounded=1;fillColor=#e1d5e7;strokeColor=#9673a6;" vertex="1" parent="eks">
                    <mxGeometry x="0" y="100" width="80" height="30" as="geometry" />
                </mxCell>
                <mxCell id="svc2" value="Order Mgmt" style="rounded=1;fillColor=#e1d5e7;strokeColor=#9673a6;" vertex="1" parent="eks">
                    <mxGeometry x="100" y="100" width="80" height="30" as="geometry" />
                </mxCell>
                <mxCell id="svc3" value="Risk Engine" style="rounded=1;fillColor=#e1d5e7;strokeColor=#9673a6;" vertex="1" parent="eks">
                    <mxGeometry x="200" y="100" width="80" height="30" as="geometry" />
                </mxCell>
                <mxCell id="svc4" value="Market Data" style="rounded=1;fillColor=#e1d5e7;strokeColor=#9673a6;" vertex="1" parent="eks">
                    <mxGeometry x="50" y="140" width="80" height="30" as="geometry" />
                </mxCell>
                <mxCell id="svc5" value="User Auth" style="rounded=1;fillColor=#e1d5e7;strokeColor=#9673a6;" vertex="1" parent="eks">
                    <mxGeometry x="150" y="140" width="80" height="30" as="geometry" />
                </mxCell>

                <!-- AWS Data Layer -->
                <mxCell id="aws-data" value="AWS Data Layer" style="swimlane;fillColor=#fff2cc;strokeColor=#d6b656;" vertex="1" parent="aws-region">
                    <mxGeometry x="380" y="20" width="120" height="180" as="geometry" />
                </mxCell>
                <mxCell id="aurora" value="Amazon Aurora (RDS)" style="shape=mxgraph.aws.database.rds;verticalLabelPosition=bottom;verticalAlign=top;" vertex="1" parent="aws-data">
                    <mxGeometry x="20" y="20" width="80" height="70" as="geometry" />
                </mxCell>
                <mxCell id="redis" value="ElastiCache Redis" style="shape=mxgraph.aws.database.elasticache;verticalLabelPosition=bottom;verticalAlign=top;" vertex="1" parent="aws-data">
                    <mxGeometry x="20" y="110" width="80" height="70" as="geometry" />
                </mxCell>

                <!-- Azure Region -->
                <mxCell id="azure-region" value="Azure DR (East US 2)" style="swimlane;fillColor=#f8cecc;strokeColor=#b85450;fontStyle=1;" vertex="1" parent="1">
                    <mxGeometry x="640" y="200" width="520" height="420" as="geometry" />
                </mxCell>

                <!-- Azure Gateway -->
                <mxCell id="azure-gateway" value="Azure App Gateway + WAF" style="shape=mxgraph.azure.network.application_gateway;verticalLabelPosition=bottom;verticalAlign=top;" vertex="1" parent="azure-region">
                    <mxGeometry x="40" y="20" width="80" height="70" as="geometry" />
                </mxCell>

                <!-- AKS -->
                <mxCell id="aks" value="Azure AKS Cluster (Standby)" style="shape=mxgraph.azure.compute.kubernetes_services;verticalLabelPosition=bottom;verticalAlign=top;" vertex="1" parent="azure-region">
                    <mxGeometry x="150" y="20" width="90" height="70" as="geometry" />
                </mxCell>

                <!-- Standby Services -->
                <mxCell id="standby-svc" value="Standby Microservices" style="rounded=1;fillColor=#e1d5e7;strokeColor=#9673a6;" vertex="1" parent="aks">
                    <mxGeometry x="0" y="100" width="160" height="40" as="geometry" />
                </mxCell>

                <!-- Azure Data -->
                <mxCell id="azure-data" value="Azure Data Layer" style="swimlane;fillColor=#fff2cc;strokeColor=#d6b656;" vertex="1" parent="azure-region">
                    <mxGeometry x="280" y="20" width="140" height="180" as="geometry" />
                </mxCell>
                <mxCell id="azsql" value="Azure SQL DB" style="shape=mxgraph.azure.databases.sql_database;verticalLabelPosition=bottom;verticalAlign=top;" vertex="1" parent="azure-data">
                    <mxGeometry x="30" y="20" width="80" height="70" as="geometry" />
                </mxCell>
                <mxCell id="azredis" value="Azure Cache for Redis" style="shape=mxgraph.azure.databases.redis_cache;verticalLabelPosition=bottom;verticalAlign=top;" vertex="1" parent="azure-data">
                    <mxGeometry x="30" y="110" width="80" height="70" as="geometry" />
                </mxCell>

                <!-- Cross-cloud VPN/Replication -->
                <mxCell id="vpn" value="VPN / PrivateLink + DB Replication (GDPR/Data Residency Rules)" style="shape=doubleArrow;fillColor=#fff2cc;strokeColor=#d6b656;" vertex="1" parent="1">
                    <mxGeometry x="580" y="520" width="200" height="50" as="geometry" />
                </mxCell>

            </root>
        </mxGraphModel>
    </diagram>
</mxfile>
